# xmcd
# 
# Track frame offsets:
#     150
#     16700
#     27950
#     41975
#     53075
#     68475
#     84327
#     94117
#     105725
#     121652
#     138007
#     151515
#     167362
#     180132
#     194152
#     205205
#     220282
#     231950
#     246075
#     257687
# 
# Disc length: 3650
# 
# Revision: 0
# Processed by: cddbd v1.5.2PL0 Copyright (c) Steve Scherf et al.
# Submitted via: fre:ac v1.0.27
# 
DISCID=f80e4014
DTITLE=Various Artist - Great Country Love Songs
DYEAR=1996
DGENRE=Country
TTITLE0=The Oak Ridge Boys - I'll Be True To You
TTITLE1=Don Williams - It Must Be Love
TTITLE2=Dolly Parton - I Will Always Love You
TTITLE3=Charlie Rich with the Jordanaires - She Called Me Baby
TTITLE4=Emmylou Harris - Today I Started Loving You Again
TTITLE5=Ed Bruce - You Turn Me On Like A Radio
TTITLE6=Charley Pride - Someone Loves You Honey
TTITLE7=The Kendalls - Sweet Desire
TTITLE8=Marty Robbins - My Woman, My Woman, My Wife
TTITLE9=Alabama - The Closer You Get
TTITLE10=Tanya Tucker - Here's Some Love
TTITLE11=Ronnie Milsap - Only One Love In My Life
TTITLE12=Charley Pride with the Cherry Sisters - Mountain Of Love
TTITLE13=Jim Ed Brown with the Nashville Edition - Morning
TTITLE14=Sonny James - I'll Never Find Another You
TTITLE15=Don Williams - Just As Long As I Have You
TTITLE16=Donna Fargo - It Do Feel Good
TTITLE17=Ricky Van Shelton - I'll Leave This World Loving You
TTITLE18=Conway Twitty - I'll Love You More Today
TTITLE19=Earl Thomas Conley and Emmylou Harris - We Believe In Happy Endings
EXTD=Reader's Digest Collection
EXTT0=
EXTT1=
EXTT2=
EXTT3=
EXTT4=
EXTT5=
EXTT6=
EXTT7=
EXTT8=
EXTT9=
EXTT10=
EXTT11=
EXTT12=
EXTT13=
EXTT14=
EXTT15=
EXTT16=
EXTT17=
EXTT18=
EXTT19=
PLAYORDER=
